<mxfile host="drawio-plugin" agent="Mozilla/5.0 (Macintosh; Intel Mac OS X 10_15_7) AppleWebKit/537.36 (KHTML, like Gecko) Chrome/122.0.0.0 Safari/537.36" modified="2024-10-30T12:46:42.082Z" version="22.1.22" etag="FVhQUERZF_wdHIvX61kT" type="embed">
  <diagram name="Seite-1" id="4n1r9QOQOMrDvwk2jI7K">
    <mxGraphModel dx="667" dy="597" grid="1" gridSize="10" guides="1" tooltips="1" connect="1" arrows="1" fold="1" page="0" pageScale="1" pageWidth="827" pageHeight="1169" math="0" shadow="0">
      <root>
        <mxCell id="0" />
        <mxCell id="1" parent="0" />
        <mxCell id="-WdDQunDlSdQ9eyQl4zT-12" value="" style="shape=umlActor;verticalLabelPosition=bottom;verticalAlign=top;html=1;outlineConnect=0;" parent="1" vertex="1">
          <mxGeometry y="120" width="40" height="80" as="geometry" />
        </mxCell>
        <mxCell id="-WdDQunDlSdQ9eyQl4zT-33" style="edgeStyle=orthogonalEdgeStyle;rounded=0;orthogonalLoop=1;jettySize=auto;html=1;entryX=0;entryY=0.5;entryDx=0;entryDy=0;exitX=0.5;exitY=1;exitDx=0;exitDy=0;startArrow=box;startFill=0;dashed=1;dashPattern=1 2;" parent="1" source="-WdDQunDlSdQ9eyQl4zT-20" target="-WdDQunDlSdQ9eyQl4zT-32" edge="1">
          <mxGeometry relative="1" as="geometry" />
        </mxCell>
        <mxCell id="-WdDQunDlSdQ9eyQl4zT-61" value="out" style="edgeLabel;html=1;align=center;verticalAlign=middle;resizable=0;points=[];" parent="-WdDQunDlSdQ9eyQl4zT-33" vertex="1" connectable="0">
          <mxGeometry x="-0.2104" y="1" relative="1" as="geometry">
            <mxPoint x="9" y="-1" as="offset" />
          </mxGeometry>
        </mxCell>
        <mxCell id="-WdDQunDlSdQ9eyQl4zT-38" style="edgeStyle=orthogonalEdgeStyle;rounded=0;orthogonalLoop=1;jettySize=auto;html=1;entryX=0;entryY=0.5;entryDx=0;entryDy=0;strokeColor=#FF33FF;exitX=1;exitY=0.5;exitDx=0;exitDy=0;entryPerimeter=0;" parent="1" source="-WdDQunDlSdQ9eyQl4zT-20" target="-WdDQunDlSdQ9eyQl4zT-71" edge="1">
          <mxGeometry relative="1" as="geometry">
            <Array as="points">
              <mxPoint x="460" y="160" />
              <mxPoint x="460" y="210" />
            </Array>
          </mxGeometry>
        </mxCell>
        <mxCell id="-WdDQunDlSdQ9eyQl4zT-20" value="simulateConversation" style="rounded=0;whiteSpace=wrap;html=1;fillColor=#d5e8d4;strokeColor=#82b366;" parent="1" vertex="1">
          <mxGeometry x="280" y="120" width="160" height="80" as="geometry" />
        </mxCell>
        <mxCell id="-WdDQunDlSdQ9eyQl4zT-28" value="" style="edgeStyle=orthogonalEdgeStyle;rounded=0;orthogonalLoop=1;jettySize=auto;html=1;endArrow=box;endFill=0;entryX=1;entryY=0.5;entryDx=0;entryDy=0;startArrow=classic;startFill=1;dashed=1;dashPattern=1 2;exitX=0;exitY=0.75;exitDx=0;exitDy=0;" parent="1" source="-WdDQunDlSdQ9eyQl4zT-20" target="-WdDQunDlSdQ9eyQl4zT-31" edge="1">
          <mxGeometry relative="1" as="geometry">
            <mxPoint x="180" y="180" as="sourcePoint" />
            <mxPoint x="220" y="220" as="targetPoint" />
          </mxGeometry>
        </mxCell>
        <mxCell id="-WdDQunDlSdQ9eyQl4zT-65" value="in" style="edgeLabel;html=1;align=center;verticalAlign=middle;resizable=0;points=[];" parent="-WdDQunDlSdQ9eyQl4zT-28" vertex="1" connectable="0">
          <mxGeometry x="0.7469" y="4" relative="1" as="geometry">
            <mxPoint x="10" y="6" as="offset" />
          </mxGeometry>
        </mxCell>
        <mxCell id="-WdDQunDlSdQ9eyQl4zT-29" value="generateTtsFromText" style="rounded=0;whiteSpace=wrap;html=1;fillColor=#d5e8d4;strokeColor=#82b366;" parent="1" vertex="1">
          <mxGeometry x="640" y="120" width="160" height="80" as="geometry" />
        </mxCell>
        <mxCell id="-WdDQunDlSdQ9eyQl4zT-31" value="&lt;div style=&quot;color: rgb(169, 177, 214); font-size: 10px;&quot;&gt;&lt;div style=&quot;&quot;&gt;&lt;font color=&quot;#000000&quot;&gt;&lt;u&gt;Input Parameters&lt;/u&gt;&lt;/font&gt;&lt;br&gt;&lt;font color=&quot;#000000&quot;&gt;&lt;br&gt;String lang,&lt;br&gt;String query,&lt;br&gt;ArrayList&amp;lt;String&amp;gt; personList,&lt;br&gt;String mode,&lt;br&gt;Integer numberOfWordsPerSentence,&lt;br&gt;Integer numberOfParts,&lt;br&gt;Integer numberOfSentencesPerPart&lt;/font&gt;&lt;/div&gt;&lt;/div&gt;" style="rounded=0;whiteSpace=wrap;html=1;fillColor=#dae8fc;strokeColor=#6c8ebf;align=left;" parent="1" vertex="1">
          <mxGeometry y="200" width="200" height="120" as="geometry" />
        </mxCell>
        <mxCell id="-WdDQunDlSdQ9eyQl4zT-40" style="edgeStyle=orthogonalEdgeStyle;rounded=0;orthogonalLoop=1;jettySize=auto;html=1;exitX=1;exitY=0.5;exitDx=0;exitDy=0;entryX=0;entryY=0.5;entryDx=0;entryDy=0;dashed=1;dashPattern=1 2;startArrow=box;startFill=0;" parent="1" source="-WdDQunDlSdQ9eyQl4zT-32" target="-WdDQunDlSdQ9eyQl4zT-35" edge="1">
          <mxGeometry relative="1" as="geometry" />
        </mxCell>
        <mxCell id="-WdDQunDlSdQ9eyQl4zT-63" value="&lt;div&gt;in&lt;/div&gt;" style="edgeLabel;html=1;align=center;verticalAlign=middle;resizable=0;points=[];" parent="-WdDQunDlSdQ9eyQl4zT-40" vertex="1" connectable="0">
          <mxGeometry x="0.0728" relative="1" as="geometry">
            <mxPoint x="10" y="-14" as="offset" />
          </mxGeometry>
        </mxCell>
        <mxCell id="-WdDQunDlSdQ9eyQl4zT-32" value="&lt;div style=&quot;color: rgb(169, 177, 214);&quot;&gt;&lt;pre style=&quot;font-family:&#39;Ayuthaya&#39;,monospace;font-size:10,5pt;&quot;&gt;&lt;font face=&quot;Helvetica&quot; color=&quot;#000000&quot;&gt;conversation_latest.txt&lt;/font&gt;&lt;/pre&gt;&lt;/div&gt;" style="rounded=0;whiteSpace=wrap;html=1;fillColor=#f8cecc;strokeColor=#b85450;align=center;" parent="1" vertex="1">
          <mxGeometry x="400" y="320" width="160" height="40" as="geometry" />
        </mxCell>
        <mxCell id="-WdDQunDlSdQ9eyQl4zT-34" style="edgeStyle=orthogonalEdgeStyle;rounded=0;orthogonalLoop=1;jettySize=auto;html=1;entryX=0;entryY=0.25;entryDx=0;entryDy=0;exitX=0.5;exitY=0;exitDx=0;exitDy=0;startArrow=box;startFill=0;dashed=1;dashPattern=1 2;strokeColor=default;" parent="1" source="-WdDQunDlSdQ9eyQl4zT-32" target="-WdDQunDlSdQ9eyQl4zT-29" edge="1">
          <mxGeometry relative="1" as="geometry">
            <mxPoint x="370" y="130" as="sourcePoint" />
            <mxPoint x="470" y="70" as="targetPoint" />
          </mxGeometry>
        </mxCell>
        <mxCell id="-WdDQunDlSdQ9eyQl4zT-62" value="in" style="edgeLabel;html=1;align=center;verticalAlign=middle;resizable=0;points=[];" parent="-WdDQunDlSdQ9eyQl4zT-34" vertex="1" connectable="0">
          <mxGeometry x="-0.5081" y="1" relative="1" as="geometry">
            <mxPoint x="11" y="-87" as="offset" />
          </mxGeometry>
        </mxCell>
        <mxCell id="-WdDQunDlSdQ9eyQl4zT-35" value="generateVisualization" style="rounded=0;whiteSpace=wrap;html=1;fillColor=#d5e8d4;strokeColor=#82b366;" parent="1" vertex="1">
          <mxGeometry x="640" y="240" width="160" height="80" as="geometry" />
        </mxCell>
        <mxCell id="-WdDQunDlSdQ9eyQl4zT-42" style="edgeStyle=orthogonalEdgeStyle;rounded=0;orthogonalLoop=1;jettySize=auto;html=1;entryX=0;entryY=0.25;entryDx=0;entryDy=0;strokeColor=#FF33FF;exitX=0.5;exitY=1;exitDx=0;exitDy=0;exitPerimeter=0;" parent="1" source="-WdDQunDlSdQ9eyQl4zT-71" target="-WdDQunDlSdQ9eyQl4zT-35" edge="1">
          <mxGeometry relative="1" as="geometry">
            <mxPoint x="590" y="160" as="sourcePoint" />
            <mxPoint x="610" y="170" as="targetPoint" />
          </mxGeometry>
        </mxCell>
        <mxCell id="-WdDQunDlSdQ9eyQl4zT-43" value="&lt;div style=&quot;color: rgb(169, 177, 214);&quot;&gt;&lt;pre style=&quot;font-family:&#39;Ayuthaya&#39;,monospace;font-size:10,5pt;&quot;&gt;&lt;font face=&quot;Helvetica&quot; color=&quot;#000000&quot;&gt;output_&amp;lt;date&amp;gt;_&amp;lt;time&amp;gt;.mp3&lt;/font&gt;&lt;/pre&gt;&lt;/div&gt;" style="rounded=0;whiteSpace=wrap;html=1;fillColor=#f8cecc;strokeColor=#b85450;align=center;" parent="1" vertex="1">
          <mxGeometry x="1200" y="20" width="160" height="40" as="geometry" />
        </mxCell>
        <mxCell id="-WdDQunDlSdQ9eyQl4zT-44" style="edgeStyle=orthogonalEdgeStyle;rounded=0;orthogonalLoop=1;jettySize=auto;html=1;dashed=1;dashPattern=1 2;startArrow=box;startFill=0;exitX=1;exitY=0.5;exitDx=0;exitDy=0;" parent="1" source="-WdDQunDlSdQ9eyQl4zT-54" target="-WdDQunDlSdQ9eyQl4zT-43" edge="1">
          <mxGeometry relative="1" as="geometry">
            <mxPoint x="800" y="160" as="sourcePoint" />
            <mxPoint x="730" y="290" as="targetPoint" />
          </mxGeometry>
        </mxCell>
        <mxCell id="-WdDQunDlSdQ9eyQl4zT-64" value="out" style="edgeLabel;html=1;align=center;verticalAlign=middle;resizable=0;points=[];" parent="-WdDQunDlSdQ9eyQl4zT-44" vertex="1" connectable="0">
          <mxGeometry x="-0.3065" y="-3" relative="1" as="geometry">
            <mxPoint x="12" y="7" as="offset" />
          </mxGeometry>
        </mxCell>
        <mxCell id="-WdDQunDlSdQ9eyQl4zT-45" value="&lt;div style=&quot;color: rgb(169, 177, 214);&quot;&gt;&lt;pre style=&quot;font-family:&#39;Ayuthaya&#39;,monospace;font-size:10,5pt;&quot;&gt;&lt;font face=&quot;Helvetica&quot; color=&quot;#000000&quot;&gt;output_image_&amp;lt;date&amp;gt;_&amp;lt;time&amp;gt;.png&lt;/font&gt;&lt;/pre&gt;&lt;/div&gt;" style="rounded=0;whiteSpace=wrap;html=1;fillColor=#f8cecc;strokeColor=#b85450;align=center;" parent="1" vertex="1">
          <mxGeometry x="920" y="280" width="200" height="40" as="geometry" />
        </mxCell>
        <mxCell id="-WdDQunDlSdQ9eyQl4zT-46" value="out" style="edgeStyle=orthogonalEdgeStyle;rounded=0;orthogonalLoop=1;jettySize=auto;html=1;entryX=0;entryY=0.5;entryDx=0;entryDy=0;dashed=1;dashPattern=1 2;startArrow=box;startFill=0;exitX=1;exitY=0.5;exitDx=0;exitDy=0;" parent="1" target="-WdDQunDlSdQ9eyQl4zT-45" edge="1">
          <mxGeometry y="-10" relative="1" as="geometry">
            <mxPoint x="800" y="299.9999999999999" as="sourcePoint" />
            <mxPoint x="850" y="190" as="targetPoint" />
            <Array as="points">
              <mxPoint x="850" y="300" />
              <mxPoint x="850" y="300" />
            </Array>
            <mxPoint as="offset" />
          </mxGeometry>
        </mxCell>
        <mxCell id="-WdDQunDlSdQ9eyQl4zT-49" value="" style="edgeStyle=orthogonalEdgeStyle;rounded=0;orthogonalLoop=1;jettySize=auto;html=1;endArrow=none;endFill=0;startArrow=doubleBlock;startFill=0;" parent="1" source="-WdDQunDlSdQ9eyQl4zT-48" target="-WdDQunDlSdQ9eyQl4zT-35" edge="1">
          <mxGeometry relative="1" as="geometry" />
        </mxCell>
        <mxCell id="-WdDQunDlSdQ9eyQl4zT-60" value="uses" style="edgeLabel;html=1;align=center;verticalAlign=middle;resizable=0;points=[];" parent="-WdDQunDlSdQ9eyQl4zT-49" vertex="1" connectable="0">
          <mxGeometry x="0.487" y="-4" relative="1" as="geometry">
            <mxPoint x="16" y="10" as="offset" />
          </mxGeometry>
        </mxCell>
        <mxCell id="-WdDQunDlSdQ9eyQl4zT-48" value="Interface&lt;br&gt;ImageGeneratorPreprocessingAssistant" style="rounded=0;whiteSpace=wrap;html=1;fillColor=#e3c800;strokeColor=#B09500;fontColor=#000000;" parent="1" vertex="1">
          <mxGeometry x="600" y="360" width="240" height="80" as="geometry" />
        </mxCell>
        <mxCell id="-WdDQunDlSdQ9eyQl4zT-50" value="&lt;div&gt;Interface&lt;/div&gt;&lt;div&gt;PhilosopherConversationAssistant&lt;/div&gt;" style="rounded=0;whiteSpace=wrap;html=1;fillColor=#e3c800;strokeColor=#B09500;fontColor=#000000;" parent="1" vertex="1">
          <mxGeometry x="240" width="240" height="80" as="geometry" />
        </mxCell>
        <mxCell id="-WdDQunDlSdQ9eyQl4zT-51" value="" style="edgeStyle=orthogonalEdgeStyle;rounded=0;orthogonalLoop=1;jettySize=auto;html=1;endArrow=none;endFill=0;startArrow=doubleBlock;startFill=0;entryX=0.5;entryY=0;entryDx=0;entryDy=0;exitX=0.5;exitY=1;exitDx=0;exitDy=0;" parent="1" source="-WdDQunDlSdQ9eyQl4zT-50" target="-WdDQunDlSdQ9eyQl4zT-20" edge="1">
          <mxGeometry relative="1" as="geometry">
            <mxPoint x="770" y="370" as="sourcePoint" />
            <mxPoint x="770" y="330" as="targetPoint" />
          </mxGeometry>
        </mxCell>
        <mxCell id="-WdDQunDlSdQ9eyQl4zT-58" value="uses" style="edgeLabel;html=1;align=center;verticalAlign=middle;resizable=0;points=[];" parent="-WdDQunDlSdQ9eyQl4zT-51" vertex="1" connectable="0">
          <mxGeometry x="0.4261" y="2" relative="1" as="geometry">
            <mxPoint x="18" y="-9" as="offset" />
          </mxGeometry>
        </mxCell>
        <mxCell id="-WdDQunDlSdQ9eyQl4zT-55" value="" style="edgeStyle=orthogonalEdgeStyle;rounded=0;orthogonalLoop=1;jettySize=auto;html=1;" parent="1" source="-WdDQunDlSdQ9eyQl4zT-52" target="-WdDQunDlSdQ9eyQl4zT-54" edge="1">
          <mxGeometry relative="1" as="geometry" />
        </mxCell>
        <mxCell id="-WdDQunDlSdQ9eyQl4zT-56" value="invokes" style="edgeLabel;html=1;align=center;verticalAlign=middle;resizable=0;points=[];" parent="-WdDQunDlSdQ9eyQl4zT-55" vertex="1" connectable="0">
          <mxGeometry x="-0.4735" y="-2" relative="1" as="geometry">
            <mxPoint x="21" y="8" as="offset" />
          </mxGeometry>
        </mxCell>
        <mxCell id="-WdDQunDlSdQ9eyQl4zT-52" value="PythonInvoker" style="rounded=0;whiteSpace=wrap;html=1;fillColor=#d5e8d4;strokeColor=#82b366;" parent="1" vertex="1">
          <mxGeometry x="640" width="160" height="80" as="geometry" />
        </mxCell>
        <mxCell id="-WdDQunDlSdQ9eyQl4zT-53" value="" style="edgeStyle=orthogonalEdgeStyle;rounded=0;orthogonalLoop=1;jettySize=auto;html=1;endArrow=none;endFill=0;startArrow=doubleBlock;startFill=0;entryX=0.5;entryY=0;entryDx=0;entryDy=0;exitX=0.5;exitY=1;exitDx=0;exitDy=0;" parent="1" source="-WdDQunDlSdQ9eyQl4zT-52" target="-WdDQunDlSdQ9eyQl4zT-29" edge="1">
          <mxGeometry relative="1" as="geometry">
            <mxPoint x="410" y="90" as="sourcePoint" />
            <mxPoint x="410" y="130" as="targetPoint" />
          </mxGeometry>
        </mxCell>
        <mxCell id="-WdDQunDlSdQ9eyQl4zT-59" value="uses" style="edgeLabel;html=1;align=center;verticalAlign=middle;resizable=0;points=[];" parent="-WdDQunDlSdQ9eyQl4zT-53" vertex="1" connectable="0">
          <mxGeometry x="0.1217" y="3" relative="1" as="geometry">
            <mxPoint x="17" y="-3" as="offset" />
          </mxGeometry>
        </mxCell>
        <mxCell id="-WdDQunDlSdQ9eyQl4zT-54" value="tts.py" style="rounded=0;whiteSpace=wrap;html=1;fillColor=#b1ddf0;strokeColor=#10739e;" parent="1" vertex="1">
          <mxGeometry x="920" width="160" height="80" as="geometry" />
        </mxCell>
        <mxCell id="-WdDQunDlSdQ9eyQl4zT-67" value="" style="edgeStyle=orthogonalEdgeStyle;rounded=0;orthogonalLoop=1;jettySize=auto;html=1;strokeColor=#FF33FF;" parent="1" source="-WdDQunDlSdQ9eyQl4zT-66" target="-WdDQunDlSdQ9eyQl4zT-20" edge="1">
          <mxGeometry relative="1" as="geometry" />
        </mxCell>
        <mxCell id="-WdDQunDlSdQ9eyQl4zT-66" value="Start" style="strokeWidth=2;html=1;shape=mxgraph.flowchart.start_2;whiteSpace=wrap;fillColor=#FF99FF;" parent="1" vertex="1">
          <mxGeometry x="160" y="140" width="40" height="40" as="geometry" />
        </mxCell>
        <mxCell id="-WdDQunDlSdQ9eyQl4zT-69" value="End" style="points=[[0.145,0.145,0],[0.5,0,0],[0.855,0.145,0],[1,0.5,0],[0.855,0.855,0],[0.5,1,0],[0.145,0.855,0],[0,0.5,0]];shape=mxgraph.bpmn.event;html=1;verticalLabelPosition=middle;labelBackgroundColor=#ffffff;verticalAlign=middle;align=center;perimeter=ellipsePerimeter;outlineConnect=0;aspect=fixed;outline=end;symbol=terminate2;labelPosition=center;strokeColor=#FF33FF;fillColor=#FF99FF;" parent="1" vertex="1">
          <mxGeometry x="1080" y="190" width="40" height="40" as="geometry" />
        </mxCell>
        <mxCell id="-WdDQunDlSdQ9eyQl4zT-75" style="edgeStyle=orthogonalEdgeStyle;rounded=0;orthogonalLoop=1;jettySize=auto;html=1;strokeColor=#FF33FF;" parent="1" source="-WdDQunDlSdQ9eyQl4zT-70" target="-WdDQunDlSdQ9eyQl4zT-69" edge="1">
          <mxGeometry relative="1" as="geometry" />
        </mxCell>
        <mxCell id="-WdDQunDlSdQ9eyQl4zT-70" value="" style="verticalLabelPosition=bottom;verticalAlign=top;html=1;shape=mxgraph.flowchart.summing_function;strokeColor=#FF33FF;fillColor=#FF99FF;" parent="1" vertex="1">
          <mxGeometry x="920" y="190" width="40" height="40" as="geometry" />
        </mxCell>
        <mxCell id="-WdDQunDlSdQ9eyQl4zT-71" value="" style="verticalLabelPosition=bottom;verticalAlign=top;html=1;shape=mxgraph.flowchart.summing_function;strokeColor=#FF33FF;fillColor=#FF99FF;" parent="1" vertex="1">
          <mxGeometry x="540" y="190" width="40" height="40" as="geometry" />
        </mxCell>
        <mxCell id="-WdDQunDlSdQ9eyQl4zT-72" style="edgeStyle=orthogonalEdgeStyle;rounded=0;orthogonalLoop=1;jettySize=auto;html=1;strokeColor=#FF33FF;exitX=0.5;exitY=0;exitDx=0;exitDy=0;exitPerimeter=0;entryX=0;entryY=0.5;entryDx=0;entryDy=0;" parent="1" source="-WdDQunDlSdQ9eyQl4zT-71" target="-WdDQunDlSdQ9eyQl4zT-29" edge="1">
          <mxGeometry relative="1" as="geometry">
            <mxPoint x="570" y="150" as="sourcePoint" />
            <mxPoint x="590" y="120" as="targetPoint" />
            <Array as="points">
              <mxPoint x="560" y="160" />
            </Array>
          </mxGeometry>
        </mxCell>
        <mxCell id="-WdDQunDlSdQ9eyQl4zT-73" style="edgeStyle=orthogonalEdgeStyle;rounded=0;orthogonalLoop=1;jettySize=auto;html=1;exitX=1;exitY=0.25;exitDx=0;exitDy=0;entryX=0.5;entryY=1;entryDx=0;entryDy=0;entryPerimeter=0;strokeColor=#FF33FF;" parent="1" source="-WdDQunDlSdQ9eyQl4zT-35" target="-WdDQunDlSdQ9eyQl4zT-70" edge="1">
          <mxGeometry relative="1" as="geometry" />
        </mxCell>
        <mxCell id="-WdDQunDlSdQ9eyQl4zT-74" style="edgeStyle=orthogonalEdgeStyle;rounded=0;orthogonalLoop=1;jettySize=auto;html=1;exitX=1;exitY=0.5;exitDx=0;exitDy=0;entryX=0.5;entryY=0;entryDx=0;entryDy=0;entryPerimeter=0;strokeColor=#FF33FF;" parent="1" source="-WdDQunDlSdQ9eyQl4zT-29" target="-WdDQunDlSdQ9eyQl4zT-70" edge="1">
          <mxGeometry relative="1" as="geometry" />
        </mxCell>
      </root>
    </mxGraphModel>
  </diagram>
</mxfile>
